<svg width="13" height="13" viewBox="0 0 13 13" fill="none" xmlns="http://www.w3.org/2000/svg">
<path d="M6.90614 12.9996H6.09365C6.0568 12.9922 6.0207 12.9829 5.98348 12.9777C5.71588 12.9401 5.44492 12.9185 5.18067 12.8638C1.88791 12.1814 -0.354538 9.07566 0.0463101 5.74628C0.259947 3.97331 1.07318 2.5207 2.46778 1.41339C3.95728 0.230916 5.66377 -0.201071 7.53998 0.0854318C8.78235 0.275193 9.87658 0.806525 10.813 1.64557C11.9344 2.65019 12.636 3.8948 12.9003 5.38015C12.9423 5.61642 12.9672 5.85604 13 6.09417V6.9068C12.9929 6.93954 12.9814 6.97191 12.9788 7.00465C12.9021 8.00741 12.6144 8.94617 12.0907 9.80382C11.059 11.4938 9.56878 12.533 7.61851 12.9007C7.38291 12.9449 7.14322 12.9676 6.90539 13L6.90614 12.9996ZM5.49182 6.72671V10.4888H7.06097V6.72373H8.11687C8.16265 6.27835 8.20694 5.84376 8.25272 5.3954H7.06357C7.06357 5.10109 7.05353 4.81831 7.0673 4.53701C7.07623 4.35469 7.20054 4.25795 7.39482 4.25274C7.59767 4.24753 7.80088 4.25125 8.0041 4.25125C8.07779 4.25125 8.15149 4.25125 8.22183 4.25125V2.9646C7.76366 2.9646 7.31443 2.94116 6.86892 2.96981C6.1104 3.01892 5.62171 3.47509 5.52122 4.22707C5.47656 4.56045 5.49814 4.9024 5.48958 5.24025C5.48847 5.28899 5.48958 5.33736 5.48958 5.40173H4.75488V6.72671H5.49182Z" fill="#2B2A2A"/>
</svg>
