<svg width="13" height="12" viewBox="0 0 13 12" fill="none" xmlns="http://www.w3.org/2000/svg">
<path d="M9.16138 0.811277C8.04514 0.139953 6.80568 -0.087568 5.50269 0.029258C2.8503 0.267338 0.618508 2.24657 0.11728 4.80414C0.0666681 5.06197 0.0383949 5.32355 0 5.58377V6.32798C0.031065 6.54972 0.053753 6.77315 0.0949403 6.99318C0.36545 8.44584 1.09181 9.63999 2.25832 10.576C3.13722 11.281 4.14875 11.6996 5.27442 11.8559C5.42311 11.8767 5.57215 11.892 5.7212 11.9101H6.48386C6.71109 11.8798 6.94006 11.858 7.16554 11.8178C8.65492 11.5531 9.88111 10.8454 10.8392 9.70504C11.6096 8.78814 12.0801 7.7333 12.1695 6.5521C12.3583 4.05448 11.3461 2.12565 9.16138 0.811618V0.811277ZM9.58128 7.40871C9.5764 7.71287 9.51636 8.01055 9.38163 8.28746C9.07342 8.922 8.54008 9.27214 7.83955 9.3205C7.08387 9.37261 6.32365 9.36921 5.56552 9.36921C5.1177 9.36921 4.66533 9.36137 4.22344 9.30007C3.3449 9.17813 2.72534 8.52861 2.65135 7.66212C2.60283 7.09536 2.60213 6.52451 2.58014 5.95877C2.60213 5.38895 2.60213 4.82219 2.6503 4.25918C2.72918 3.33581 3.4182 2.65325 4.36551 2.58955C5.12503 2.5388 5.88944 2.54221 6.6514 2.54221C7.09504 2.54221 7.54356 2.54936 7.98161 2.61101C8.864 2.73567 9.46645 3.37975 9.55755 4.24794C9.58373 4.49828 9.60153 4.75066 9.60153 5.00203C9.60083 5.80414 9.59385 6.6066 9.58128 7.40871Z" fill="#2B2A2A"/>
<path d="M7.68739 3.19325C6.62839 3.16566 5.56764 3.16634 4.50864 3.19359C3.77599 3.21266 3.31211 3.68541 3.26778 4.40034C3.23602 4.9143 3.23392 5.42997 3.21857 5.94939C3.23392 6.46846 3.23602 6.99197 3.26813 7.51377C3.31141 8.22256 3.77634 8.68032 4.49956 8.72119C5.56659 8.78148 6.63537 8.78114 7.7024 8.72119C8.42632 8.68066 8.91393 8.22221 8.93313 7.51581C8.96106 6.48243 8.9628 5.44734 8.93418 4.41396C8.91393 3.68031 8.43574 3.21232 7.68739 3.19257V3.19325ZM6.10412 7.70995C5.1076 7.71097 4.30061 6.92248 4.30445 5.95109C4.30794 4.9814 5.10795 4.20245 6.10133 4.20142C7.0982 4.20006 7.9045 4.98821 7.90101 5.95995C7.89752 6.92964 7.0975 7.70893 6.10447 7.70995H6.10412ZM7.96802 4.53862C7.73765 4.53658 7.5551 4.35674 7.55475 4.13126C7.55475 3.90101 7.74184 3.71982 7.97814 3.72186C8.20781 3.7239 8.39176 3.9051 8.39211 4.12956C8.39211 4.35912 8.20433 4.54032 7.96802 4.53862Z" fill="#2B2A2A"/>
<path d="M6.10829 4.81641C5.4657 4.81403 4.9383 5.32187 4.9348 5.94721C4.93097 6.57936 5.45593 7.09503 6.10271 7.09503C6.74495 7.09503 7.26887 6.58481 7.27026 5.95845C7.27131 5.3314 6.75019 4.81914 6.10829 4.81641Z" fill="#2B2A2A"/>
</svg>
