<svg width="13" height="13" viewBox="0 0 13 13" fill="none" xmlns="http://www.w3.org/2000/svg">
<path d="M6.09246 0C6.36334 0 6.63422 0 6.90509 0C6.93764 0.00723115 6.96983 0.0184394 7.00274 0.0206088C8.015 0.0961743 8.96289 0.386867 9.82615 0.918356C11.5042 1.95133 12.5382 3.43697 12.9002 5.37962C12.9443 5.61571 12.9671 5.85543 13 6.09333V6.90575C12.9812 7.0605 12.9653 7.21561 12.9429 7.36999C12.6861 9.11523 11.8731 10.547 10.4811 11.6299C9.05294 12.7406 7.42189 13.1719 5.63063 12.9387C4.09904 12.7391 2.79384 12.063 1.74723 10.9263C0.364633 9.42436 -0.193759 7.64333 0.0590356 5.6215C0.221055 4.32387 0.755577 3.18135 1.62463 2.20333C2.63472 1.06732 3.89001 0.359388 5.39086 0.0979821C5.6234 0.0574877 5.85847 0.0321786 6.0921 0H6.09246ZM10.3115 9.82135C10.314 9.77652 10.3173 9.74326 10.3173 9.70999C10.3173 8.83864 10.3191 7.96728 10.3158 7.09593C10.3151 6.92311 10.3024 6.7492 10.2811 6.57746C10.1657 5.65006 9.61024 5.06795 8.71624 4.96527C8.06925 4.89115 7.52135 5.08675 7.1351 5.64138C7.12209 5.65982 7.10472 5.67537 7.06603 5.71767V5.06976H5.49393V9.81774H7.06856V9.65974C7.06856 9.01255 7.06783 8.36536 7.06892 7.71817C7.06928 7.48135 7.06892 7.24417 7.07941 7.00771C7.09243 6.72099 7.23709 6.50117 7.46674 6.34172C7.9235 6.02427 8.51335 6.22711 8.66416 6.76004C8.71407 6.93612 8.73071 7.1263 8.73215 7.31033C8.73939 8.10142 8.73505 8.89251 8.73505 9.68324C8.73505 9.72807 8.73505 9.77254 8.73505 9.82099H10.3115V9.82135ZM3.03434 5.06072V9.81701H4.6115V9.65901C4.6115 8.21206 4.6115 6.7651 4.6115 5.31815C4.6115 5.27151 4.6068 5.22451 4.61259 5.17859C4.62488 5.08061 4.58185 5.05783 4.48962 5.05855C4.06649 5.06289 3.64336 5.06036 3.21987 5.06036C3.16128 5.06036 3.10269 5.06036 3.03434 5.06036V5.06072ZM2.93525 3.58954C2.93489 4.07186 3.30341 4.41607 3.8184 4.41426C4.33737 4.41245 4.71421 4.06933 4.71493 3.5975C4.71602 3.11663 4.34677 2.76881 3.83359 2.76736C3.30522 2.76592 2.93561 3.10433 2.93525 3.58954Z" fill="#2B2A2A"/>
</svg>
