<svg xmlns="http://www.w3.org/2000/svg" width="17" height="20" viewBox="0 0 17 20" fill="none">
<path d="M7.44511 19.9346C7.02431 19.8581 6.59441 19.8154 6.18373 19.6994C2.95645 18.7865 0.901031 16.6569 0.193973 13.2929C-0.380574 10.5606 0.337104 8.11717 2.13611 6.01723C2.16038 5.98913 2.18213 5.95894 2.21602 5.91574C1.83265 5.52438 1.45282 5.13614 1.08715 4.76247C1.469 4.37006 1.84125 3.98703 2.21956 3.59774C2.60242 3.99483 3.00956 4.41586 3.39141 4.81191C3.90375 4.53088 4.37006 4.24828 4.85863 4.01409C5.57682 3.67008 6.3385 3.46764 7.12648 3.36979C7.18262 3.36303 7.27568 3.29537 7.27618 3.25426C7.2863 2.73018 7.28276 2.20559 7.28276 1.65757H5.67595V0H10.4959V1.64508H8.91587C8.90575 1.70962 8.89362 1.75177 8.89311 1.79445C8.89159 2.2618 8.89463 2.72914 8.89058 3.19649C8.88957 3.30318 8.91081 3.35886 9.02916 3.37656C10.5601 3.60711 11.3011 3.89803 12.7162 4.81295C13.1228 4.39036 13.5294 3.96829 13.9275 3.55507C14.3321 3.97297 14.7038 4.35757 15.0751 4.74113C14.7124 5.11168 14.3301 5.50304 13.9462 5.89545C14.1262 6.11663 14.2856 6.2993 14.4317 6.4929C15.7078 8.18483 16.2833 10.1063 16.1417 12.2379C15.8883 16.0548 13.1081 19.18 9.42062 19.8253C9.19151 19.8654 8.96139 19.8982 8.73177 19.9346H7.4446H7.44511ZM1.62528 11.6202C1.6268 15.2851 4.51421 18.264 8.07074 18.2692C11.648 18.2744 14.545 15.3012 14.5526 11.6166C14.5602 7.96989 11.648 4.9748 8.09653 4.97585C4.52533 4.97689 1.62377 7.95636 1.62528 11.6202Z" fill="#999999"/>
<path d="M3.26048 11.626H8.08092V6.66937C9.51021 6.4206 11.5338 7.66495 12.3683 9.28714C13.3404 11.1773 13.0334 13.5136 11.6106 15.0473C10.148 16.6242 7.91806 17.0535 6.01437 16.1287C4.02823 15.1638 3.19878 13.1133 3.25998 11.626H3.26048Z" fill="#999999"/>
</svg>