<svg xmlns="http://www.w3.org/2000/svg" width="18" height="18" viewBox="0 0 18 18" fill="none">
<path d="M11.6719 0H12.0936C12.8043 0.112385 13.2097 0.579695 13.5396 1.17812C14.2034 2.38217 14.9012 3.5675 15.5793 4.76387C15.647 4.88298 15.7272 4.93869 15.8617 4.95934C16.5274 5.06164 17.1123 5.67976 17.1555 6.3459C17.1839 6.77767 17.1791 7.21184 17.1824 7.64457C17.1853 8.03263 17.0302 8.18392 16.6393 8.1844C15.8718 8.18536 15.1043 8.18104 14.3374 8.18632C14.0276 8.18873 13.7154 8.18969 13.409 8.22859C11.5941 8.45912 10.295 10.3452 10.7094 12.1347C11.0692 13.6879 12.3543 14.7186 13.9512 14.7277C14.8589 14.733 15.7671 14.7277 16.6753 14.7291C17.023 14.7291 17.1805 14.8843 17.1834 15.2305C17.1863 15.5879 17.1896 15.9452 17.1815 16.3025C17.1781 16.4533 17.1642 16.6085 17.1243 16.753C16.9101 17.5287 16.3064 17.9974 15.5015 17.9979C10.8972 18.0013 6.29293 17.9998 1.68911 17.9974C1.53831 17.9974 1.3827 17.9811 1.23815 17.9412C0.468762 17.7275 0.0024251 17.1166 0.00194483 16.3102C-0.00141702 13.0712 2.3775e-05 9.83175 0.00290536 6.59228C0.00290536 6.44196 0.0201949 6.28587 0.0610173 6.14178C0.278097 5.36854 0.872664 4.92476 1.69584 4.91372C2.07669 4.90891 2.45754 4.92188 2.83791 4.90795C2.97094 4.90315 3.11646 4.86713 3.23076 4.80085C5.02935 3.76105 6.81545 2.70012 8.62173 1.67425C9.6298 1.10128 10.5745 0.411117 11.6719 0.000480277V0ZM4.74551 4.87241L4.7556 4.91276C5.21041 4.91276 5.6657 4.91804 6.12003 4.90891C6.22473 4.90699 6.34095 4.87673 6.43124 4.82438C8.43587 3.66259 10.4376 2.49648 12.4398 1.33037C12.4946 1.29867 12.5469 1.26313 12.6007 1.22951C12.5906 1.20405 12.5873 1.18676 12.5781 1.17332C12.3274 0.803023 11.8765 0.719455 11.4457 0.97016C9.24559 2.24962 7.04694 3.531 4.84733 4.81142C4.81323 4.83159 4.77913 4.85224 4.74504 4.87289L4.74551 4.87241ZM11.2214 4.87385L11.2353 4.90171H14.7192C14.418 4.37484 14.1299 3.87055 13.8336 3.35233C12.9542 3.86431 12.0878 4.36908 11.2209 4.87385H11.2214Z" fill="#999999"/>
<path d="M18.0003 12.8672C17.886 13.0871 17.8014 13.3306 17.6502 13.5213C17.4326 13.7956 17.1084 13.907 16.7612 13.9079C15.7478 13.9094 14.7335 13.9339 13.7221 13.8887C12.4979 13.834 11.5013 12.7889 11.4615 11.5906C11.4183 10.2886 12.3043 9.20507 13.5569 9.03265C13.7072 9.01199 13.8599 9.00239 14.0117 9.00191C14.8435 8.99903 15.6758 9.02016 16.5067 8.99422C17.1848 8.97309 17.7918 9.21371 17.9998 10.0552V12.8677L18.0003 12.8672ZM13.9041 10.6416C13.4536 10.644 13.0877 11.0133 13.0929 11.46C13.0982 11.909 13.4671 12.2726 13.9147 12.2697C14.3613 12.2668 14.7306 11.8941 14.7273 11.4494C14.7239 11.0018 14.3546 10.6392 13.9041 10.6416Z" fill="#999999"/>
</svg>