<svg width="13" height="13" viewBox="0 0 13 13" fill="none" xmlns="http://www.w3.org/2000/svg">
<path d="M12.5094 5.09266C12.1482 3.21799 11.1202 1.79462 9.44342 0.821529C8.62735 0.347753 7.73729 0.089578 6.78998 0.0197548C6.75822 0.0173706 6.7268 0.00681201 6.69504 0H5.93168C5.63988 0.0405315 5.34563 0.0681201 5.05662 0.122957C2.53303 0.601841 0.522883 2.61377 0.0925106 5.08551C-0.405925 7.94757 1.14593 10.7139 3.87546 11.8301C7.45142 13.2923 11.5373 11.263 12.4309 7.57598C12.5059 7.26569 12.5346 6.94485 12.5852 6.62911C12.5914 6.59028 12.5991 6.55213 12.6061 6.51331V5.76841C12.5743 5.54293 12.5524 5.31609 12.5094 5.09266ZM9.34778 7.42952C9.27238 7.91283 8.95999 8.16113 8.51391 8.26059C8.21652 8.327 7.90448 8.33892 7.59802 8.35732C7.16799 8.3832 6.73727 8.3924 6.13308 8.41556C5.60916 8.38184 4.91282 8.34267 4.21787 8.2892C3.95888 8.2691 3.73165 8.155 3.53444 7.9864C3.3498 7.82836 3.28557 7.61992 3.24892 7.3924C3.10965 6.52216 3.1121 5.65363 3.27405 4.7868C3.35713 4.34232 3.68523 4.13046 4.09501 4.04463C4.40949 3.97856 4.73725 3.96595 5.06046 3.94586C6.16449 3.87672 7.26712 3.89511 8.36731 4.01364C8.66644 4.04565 8.92334 4.16895 9.13451 4.38251C9.31357 4.56337 9.33696 4.79634 9.37116 5.02522C9.49089 5.82768 9.47274 6.62809 9.34778 7.42986V7.42952Z" fill="#2B2A2A"/>
<path d="M5.55368 7.32836C6.20988 6.93497 6.85073 6.55111 7.51496 6.15261C6.85317 5.75615 6.21058 5.37127 5.55368 4.97754V7.32836Z" fill="#2B2A2A"/>
</svg>
